ISO-10303-21;
HEADER;
/* Generated by software containing ST-Developer
 * from STEP Tools, Inc. (www.steptools.com) 
 */
/* OPTION: using custom renumber hook */

FILE_DESCRIPTION(
/* description */ ('STEP AP242 Edition 2',
'CAx-IF Rec.Pracs.---Representation and Presentation of Product Manufa
cturing Information (PMI)---4.0---2014-10-13',
'CAx-IF Rec.Pracs.---3D Tessellated Geometry---0.4---2014-09-14','2;1',
'CAx-IF Rec.Pracs.---User Defined Attributes---1.5---2016-08-15'),
/* implementation_level */ '2;1');

FILE_NAME(
/* name */ 'KEEBY 60+20 - Part 9',
/* time_stamp */ '2026-06-06T03:57:18Z',
/* author */ (''),
/* organization */ (''),
/* preprocessor_version */ 'ST-DEVELOPER v20',
/* originating_system */ 'ONSHAPE BY PTC INC, 1.216',
/* authorisation */ '  ');

FILE_SCHEMA (('AP242_MANAGED_MODEL_BASED_3D_ENGINEERING_MIM_LF { 1 0 10303 442 3 1 4 }'));
ENDSEC;

DATA;
#10=SHAPE_REPRESENTATION_RELATIONSHIP('','',#80,#11);
#11=ADVANCED_BREP_SHAPE_REPRESENTATION('',(#78),#286);
#12=B_SPLINE_SURFACE_WITH_KNOTS('',3,3,((#152,#153,#154,#155,#156,#157,
#158,#159,#160,#161,#162,#163,#164,#165,#166,#167,#168,#169,#170),(#171,
#172,#173,#174,#175,#176,#177,#178,#179,#180,#181,#182,#183,#184,#185,#186,
#187,#188,#189),(#190,#191,#192,#193,#194,#195,#196,#197,#198,#199,#200,
#201,#202,#203,#204,#205,#206,#207,#208),(#209,#210,#211,#212,#213,#214,
#215,#216,#217,#218,#219,#220,#221,#222,#223,#224,#225,#226,#227),(#228,
#229,#230,#231,#232,#233,#234,#235,#236,#237,#238,#239,#240,#241,#242,#243,
#244,#245,#246),(#247,#248,#249,#250,#251,#252,#253,#254,#255,#256,#257,
#258,#259,#260,#261,#262,#263,#264,#265),(#266,#267,#268,#269,#270,#271,
#272,#273,#274,#275,#276,#277,#278,#279,#280,#281,#282,#283,#284)),
 .UNSPECIFIED.,.F.,.T.,.F.,(4,1,1,1,4),(1,1,1,1,1,1,1,1,1,1,1,1,1,1,1,1,
1,1,1,1,1,1,1),(-0.00600001815542857,0.287416653806571,0.496999990922286,
0.706583328038,1.),(-1.17809724509617,-0.785398163397448,-0.392699081698725,
0.,0.392699081698724,0.785398163397448,1.17809724509617,1.5707963267949,
1.96349540849362,2.35619449019234,2.74889357189107,3.14159265358979,3.53429173528852,
3.92699081698724,4.31968989868597,4.71238898038469,5.10508806208341,5.49778714378214,
5.89048622548086,6.28318530717959,6.67588438887831,7.06858347057703,7.46128255227576),
 .UNSPECIFIED.);
#13=PLANE('',#84);
#14=PLANE('',#85);
#15=PLANE('',#89);
#16=CIRCLE('',#83,0.0085);
#17=CIRCLE('',#86,0.003);
#18=CIRCLE('',#88,0.003);
#19=ORIENTED_EDGE('',*,*,#29,.T.);
#20=ORIENTED_EDGE('',*,*,#30,.T.);
#21=ORIENTED_EDGE('',*,*,#31,.T.);
#22=ORIENTED_EDGE('',*,*,#32,.F.);
#23=ORIENTED_EDGE('',*,*,#30,.F.);
#24=ORIENTED_EDGE('',*,*,#33,.T.);
#25=ORIENTED_EDGE('',*,*,#32,.T.);
#26=ORIENTED_EDGE('',*,*,#33,.F.);
#27=ORIENTED_EDGE('',*,*,#29,.F.);
#28=ORIENTED_EDGE('',*,*,#31,.F.);
#29=EDGE_CURVE('',#34,#34,#39,.T.);
#30=EDGE_CURVE('',#35,#35,#16,.T.);
#31=EDGE_CURVE('',#36,#36,#40,.T.);
#32=EDGE_CURVE('',#37,#37,#17,.F.);
#33=EDGE_CURVE('',#38,#38,#18,.T.);
#34=VERTEX_POINT('',#121);
#35=VERTEX_POINT('',#123);
#36=VERTEX_POINT('',#144);
#37=VERTEX_POINT('',#147);
#38=VERTEX_POINT('',#150);
#39=B_SPLINE_CURVE_WITH_KNOTS('',3,(#110,#111,#112,#113,#114,#115,#116,
#117,#118,#119,#120),.UNSPECIFIED.,.T.,.F.,(1,1,1,1,1,1,1,1,1,1,1,1,1,1,
1),(-0.375,-0.25,-0.125,0.,0.125,0.25,0.375,0.5,0.625,0.75,0.875,1.,1.125,
1.25,1.375),.UNSPECIFIED.);
#40=B_SPLINE_CURVE_WITH_KNOTS('',3,(#125,#126,#127,#128,#129,#130,#131,
#132,#133,#134,#135,#136,#137,#138,#139,#140,#141,#142,#143),
 .UNSPECIFIED.,.T.,.F.,(1,1,1,1,1,1,1,1,1,1,1,1,1,1,1,1,1,1,1,1,1,1,1),
(-0.190789473684211,-0.128289473684211,-0.0657894736842105,0.,0.059375,
0.12171875,0.1842109375,0.246710546875,0.30921052734375,0.371710526367187,
0.434210526318359,0.496710526315918,0.559210526315796,0.62171052631579,
0.684210526315789,0.746710526315789,0.809210526315789,0.871710526315789,
0.934210526315789,1.,1.059375,1.12171875,1.1842109375),.UNSPECIFIED.);
#41=EDGE_LOOP('',(#19));
#42=EDGE_LOOP('',(#20));
#43=EDGE_LOOP('',(#21));
#44=EDGE_LOOP('',(#22));
#45=EDGE_LOOP('',(#23));
#46=EDGE_LOOP('',(#24));
#47=EDGE_LOOP('',(#25));
#48=EDGE_LOOP('',(#26));
#49=EDGE_LOOP('',(#27));
#50=EDGE_LOOP('',(#28));
#51=FACE_BOUND('',#41,.T.);
#52=FACE_BOUND('',#42,.T.);
#53=FACE_BOUND('',#43,.T.);
#54=FACE_BOUND('',#44,.T.);
#55=FACE_BOUND('',#45,.T.);
#56=FACE_BOUND('',#46,.T.);
#57=FACE_BOUND('',#47,.T.);
#58=FACE_BOUND('',#48,.T.);
#59=FACE_BOUND('',#49,.T.);
#60=FACE_BOUND('',#50,.T.);
#61=CYLINDRICAL_SURFACE('',#82,0.0085);
#62=CYLINDRICAL_SURFACE('',#87,0.003);
#63=ADVANCED_FACE('',(#51,#52),#61,.T.);
#64=ADVANCED_FACE('',(#53),#13,.T.);
#65=ADVANCED_FACE('',(#54,#55),#14,.F.);
#66=ADVANCED_FACE('',(#56,#57),#62,.F.);
#67=ADVANCED_FACE('',(#58),#15,.F.);
#68=ADVANCED_FACE('',(#59,#60),#12,.T.);
#69=CLOSED_SHELL('',(#63,#64,#65,#66,#67,#68));
#70=STYLED_ITEM('',(#71),#78);
#71=PRESENTATION_STYLE_ASSIGNMENT((#72));
#72=SURFACE_STYLE_USAGE(.BOTH.,#73);
#73=SURFACE_SIDE_STYLE('',(#74));
#74=SURFACE_STYLE_FILL_AREA(#75);
#75=FILL_AREA_STYLE('',(#76));
#76=FILL_AREA_STYLE_COLOUR('',#77);
#77=COLOUR_RGB('',0.615686274509804,0.811764705882353,0.929411764705882);
#78=MANIFOLD_SOLID_BREP('Part 9',#69);
#79=SHAPE_DEFINITION_REPRESENTATION(#291,#80);
#80=SHAPE_REPRESENTATION('Part 9',(#81),#286);
#81=AXIS2_PLACEMENT_3D('',#108,#90,#91);
#82=AXIS2_PLACEMENT_3D('',#109,#92,#93);
#83=AXIS2_PLACEMENT_3D('',#122,#94,#95);
#84=AXIS2_PLACEMENT_3D('',#124,#96,#97);
#85=AXIS2_PLACEMENT_3D('',#145,#98,#99);
#86=AXIS2_PLACEMENT_3D('',#146,#100,#101);
#87=AXIS2_PLACEMENT_3D('',#148,#102,#103);
#88=AXIS2_PLACEMENT_3D('',#149,#104,#105);
#89=AXIS2_PLACEMENT_3D('',#151,#106,#107);
#90=DIRECTION('',(0.,0.,1.));
#91=DIRECTION('',(1.,0.,0.));
#92=DIRECTION('',(0.,0.,-1.));
#93=DIRECTION('',(-1.,0.,0.));
#94=DIRECTION('',(0.,0.,1.));
#95=DIRECTION('',(1.,0.,0.));
#96=DIRECTION('',(0.,0.,1.));
#97=DIRECTION('',(1.,0.,0.));
#98=DIRECTION('',(0.,0.,1.));
#99=DIRECTION('',(1.,0.,0.));
#100=DIRECTION('',(0.,0.,1.));
#101=DIRECTION('',(1.,0.,0.));
#102=DIRECTION('',(0.,0.,-1.));
#103=DIRECTION('',(-1.,0.,0.));
#104=DIRECTION('',(0.,0.,1.));
#105=DIRECTION('',(1.,0.,0.));
#106=DIRECTION('',(0.,0.,1.));
#107=DIRECTION('',(1.,0.,0.));
#108=CARTESIAN_POINT('',(0.,0.,0.));
#109=CARTESIAN_POINT('',(0.18299795,0.05928225,0.0205));
#110=CARTESIAN_POINT('',(0.189658648811575,0.0659429488115754,0.0192928932188135));
#111=CARTESIAN_POINT('',(0.192417600594212,0.05928225,0.0192928932188135));
#112=CARTESIAN_POINT('',(0.189658648811575,0.0526215511884246,0.0192928932188135));
#113=CARTESIAN_POINT('',(0.18299795,0.0498625994057877,0.0192928932188135));
#114=CARTESIAN_POINT('',(0.176337251188425,0.0526215511884246,0.0192928932188135));
#115=CARTESIAN_POINT('',(0.173578299405788,0.05928225,0.0192928932188135));
#116=CARTESIAN_POINT('',(0.176337251188425,0.0659429488115754,0.0192928932188135));
#117=CARTESIAN_POINT('',(0.18299795,0.0687019005942123,0.0192928932188135));
#118=CARTESIAN_POINT('',(0.189658648811575,0.0659429488115754,0.0192928932188135));
#119=CARTESIAN_POINT('',(0.192417600594212,0.05928225,0.0192928932188135));
#120=CARTESIAN_POINT('',(0.189658648811575,0.0526215511884246,0.0192928932188135));
#121=CARTESIAN_POINT('',(0.19149795,0.05928225,0.0192928932188134));
#122=CARTESIAN_POINT('',(0.18299795,0.05928225,0.0085));
#123=CARTESIAN_POINT('',(0.19149795,0.05928225,0.0085));
#124=CARTESIAN_POINT('',(0.00517738957505071,0.008343625,0.0205));
#125=CARTESIAN_POINT('',(0.189879342497756,0.0563159868479748,0.0205));
#126=CARTESIAN_POINT('',(0.190480688479904,0.0591853937236112,0.0205));
#127=CARTESIAN_POINT('',(0.18994067084792,0.062045787510942,0.0205));
#128=CARTESIAN_POINT('',(0.188396409119868,0.0644633626252494,0.0205));
#129=CARTESIAN_POINT('',(0.18600524974837,0.0661340604235535,0.0205));
#130=CARTESIAN_POINT('',(0.183154384941897,0.0667634256765969,0.0205));
#131=CARTESIAN_POINT('',(0.18027956048662,0.0662538065673165,0.0205));
#132=CARTESIAN_POINT('',(0.177818586557769,0.0646828506091979,0.0205));
#133=CARTESIAN_POINT('',(0.176146121758534,0.0622896965580183,0.0205));
#134=CARTESIAN_POINT('',(0.175516786121089,0.0594386875927894,0.0205));
#135=CARTESIAN_POINT('',(0.176026389868274,0.0565638615776626,0.0205));
#136=CARTESIAN_POINT('',(0.177597350009917,0.0541028873585767,0.0205));
#137=CARTESIAN_POINT('',(0.179990504295305,0.0524304177901188,0.0205));
#138=CARTESIAN_POINT('',(0.182841508357701,0.0518011012045447,0.0205));
#139=CARTESIAN_POINT('',(0.185716353766019,0.0523106335030227,0.0205));
#140=CARTESIAN_POINT('',(0.188177255316214,0.0538818603874646,0.0205));
#141=CARTESIAN_POINT('',(0.189879342497756,0.0563159868479748,0.0205));
#142=CARTESIAN_POINT('',(0.190480688479904,0.0591853937236112,0.0205));
#143=CARTESIAN_POINT('',(0.18994067084792,0.062045787510942,0.0205));
#144=CARTESIAN_POINT('',(0.190290843218814,0.05928225,0.0205));
#145=CARTESIAN_POINT('',(0.00517738957505071,0.008343625,0.0085));
#146=CARTESIAN_POINT('',(0.18299795,0.05928225,0.0085));
#147=CARTESIAN_POINT('',(0.18599795,0.05928225,0.0085));
#148=CARTESIAN_POINT('',(0.18299795,0.05928225,0.0165));
#149=CARTESIAN_POINT('',(0.18299795,0.05928225,0.0165));
#150=CARTESIAN_POINT('',(0.18599795,0.05928225,0.0165));
#151=CARTESIAN_POINT('',(0.00517738957505071,0.008343625,0.0165));
#152=CARTESIAN_POINT('',(0.176095084905565,0.0621415302106995,0.0205));
#153=CARTESIAN_POINT('',(0.175526338709853,0.05928225,0.0205));
#154=CARTESIAN_POINT('',(0.176095084905565,0.0564229697893005,0.0205));
#155=CARTESIAN_POINT('',(0.177714737040101,0.0539989890712404,0.0205));
#156=CARTESIAN_POINT('',(0.180138717758161,0.0523793369367043,0.0205));
#157=CARTESIAN_POINT('',(0.182997997968861,0.0518105907409923,0.0205));
#158=CARTESIAN_POINT('',(0.18585727817956,0.0523793369367043,0.0205));
#159=CARTESIAN_POINT('',(0.18828125889762,0.0539989890712404,0.0205));
#160=CARTESIAN_POINT('',(0.189900911032156,0.0564229697893005,0.0205));
#161=CARTESIAN_POINT('',(0.190469657227869,0.05928225,0.0205));
#162=CARTESIAN_POINT('',(0.189900911032156,0.0621415302106995,0.0205));
#163=CARTESIAN_POINT('',(0.18828125889762,0.0645655109287596,0.0205));
#164=CARTESIAN_POINT('',(0.18585727817956,0.0661851630632957,0.0205));
#165=CARTESIAN_POINT('',(0.182997997968861,0.0667539092590078,0.0205));
#166=CARTESIAN_POINT('',(0.180138717758161,0.0661851630632957,0.0205));
#167=CARTESIAN_POINT('',(0.177714737040101,0.0645655109287596,0.0205));
#168=CARTESIAN_POINT('',(0.176095084905565,0.0621415302106995,0.0205));
#169=CARTESIAN_POINT('',(0.175526338709853,0.05928225,0.0205));
#170=CARTESIAN_POINT('',(0.176095084905565,0.0564229697893005,0.0205));
#171=CARTESIAN_POINT('',(0.175932111227857,0.062209036118316,0.020503988811086));
#172=CARTESIAN_POINT('',(0.175349937272249,0.05928225,0.020503988811086));
#173=CARTESIAN_POINT('',(0.175932111227857,0.0563554638816841,0.020503988811086));
#174=CARTESIAN_POINT('',(0.17759000238736,0.0538742544184995,0.020503988811086));
#175=CARTESIAN_POINT('',(0.180071211850545,0.0522163632589963,0.020503988811086));
#176=CARTESIAN_POINT('',(0.182997997968861,0.0516341893033882,0.020503988811086));
#177=CARTESIAN_POINT('',(0.185924784087177,0.0522163632589963,0.020503988811086));
#178=CARTESIAN_POINT('',(0.188405993550361,0.0538742544184995,0.020503988811086));
#179=CARTESIAN_POINT('',(0.190063884709864,0.056355463881684,0.020503988811086));
#180=CARTESIAN_POINT('',(0.190646058665472,0.05928225,0.020503988811086));
#181=CARTESIAN_POINT('',(0.190063884709864,0.0622090361183159,0.020503988811086));
#182=CARTESIAN_POINT('',(0.188405993550361,0.0646902455815005,0.020503988811086));
#183=CARTESIAN_POINT('',(0.185924784087177,0.0663481367410037,0.020503988811086));
#184=CARTESIAN_POINT('',(0.182997997968861,0.0669303106966118,0.020503988811086));
#185=CARTESIAN_POINT('',(0.180071211850545,0.0663481367410037,0.020503988811086));
#186=CARTESIAN_POINT('',(0.17759000238736,0.0646902455815005,0.020503988811086));
#187=CARTESIAN_POINT('',(0.175932111227857,0.062209036118316,0.020503988811086));
#188=CARTESIAN_POINT('',(0.175349937272249,0.05928225,0.020503988811086));
#189=CARTESIAN_POINT('',(0.175932111227857,0.0563554638816841,0.020503988811086));
#190=CARTESIAN_POINT('',(0.175611735039181,0.0623417402807271,0.0204798918078346));
#191=CARTESIAN_POINT('',(0.175003164584467,0.0592822500000001,0.0204798918078346));
#192=CARTESIAN_POINT('',(0.175611735039181,0.056222759719273,0.0204798918078346));
#193=CARTESIAN_POINT('',(0.177344797068299,0.0536290490994382,0.0204798918078346));
#194=CARTESIAN_POINT('',(0.179938507688134,0.0518959870703202,0.0204798918078346));
#195=CARTESIAN_POINT('',(0.182997997968861,0.0512874166156057,0.0204798918078346));
#196=CARTESIAN_POINT('',(0.186057488249588,0.0518959870703202,0.0204798918078346));
#197=CARTESIAN_POINT('',(0.188651198869423,0.0536290490994382,0.0204798918078346));
#198=CARTESIAN_POINT('',(0.190384260898541,0.056222759719273,0.0204798918078346));
#199=CARTESIAN_POINT('',(0.190992831353255,0.0592822500000001,0.0204798918078346));
#200=CARTESIAN_POINT('',(0.190384260898541,0.0623417402807272,0.0204798918078346));
#201=CARTESIAN_POINT('',(0.188651198869423,0.0649354509005619,0.0204798918078346));
#202=CARTESIAN_POINT('',(0.186057488249588,0.06666851292968,0.0204798918078346));
#203=CARTESIAN_POINT('',(0.182997997968861,0.0672770833843945,0.0204798918078346));
#204=CARTESIAN_POINT('',(0.179938507688134,0.0666685129296799,0.0204798918078346));
#205=CARTESIAN_POINT('',(0.177344797068299,0.064935450900562,0.0204798918078346));
#206=CARTESIAN_POINT('',(0.175611735039181,0.0623417402807271,0.0204798918078346));
#207=CARTESIAN_POINT('',(0.175003164584467,0.0592822500000001,0.0204798918078346));
#208=CARTESIAN_POINT('',(0.175611735039181,0.056222759719273,0.0204798918078346));
#209=CARTESIAN_POINT('',(0.175206940415598,0.0625094117037907,0.0202274862245927));
#210=CARTESIAN_POINT('',(0.17456501804118,0.05928225,0.0202274862245927));
#211=CARTESIAN_POINT('',(0.175206940415598,0.0560550882962094,0.0202274862245927));
#212=CARTESIAN_POINT('',(0.177034980676388,0.0533192327075272,0.0202274862245927));
#213=CARTESIAN_POINT('',(0.17977083626507,0.0514911924467376,0.0202274862245927));
#214=CARTESIAN_POINT('',(0.182997997968861,0.0508492700723196,0.0202274862245927));
#215=CARTESIAN_POINT('',(0.186225159672651,0.0514911924467376,0.0202274862245927));
#216=CARTESIAN_POINT('',(0.188961015261333,0.0533192327075272,0.0202274862245927));
#217=CARTESIAN_POINT('',(0.190789055522123,0.0560550882962093,0.0202274862245927));
#218=CARTESIAN_POINT('',(0.191430977896541,0.05928225,0.0202274862245927));
#219=CARTESIAN_POINT('',(0.190789055522123,0.0625094117037906,0.0202274862245927));
#220=CARTESIAN_POINT('',(0.188961015261333,0.0652452672924728,0.0202274862245927));
#221=CARTESIAN_POINT('',(0.186225159672651,0.0670733075532624,0.0202274862245927));
#222=CARTESIAN_POINT('',(0.182997997968861,0.0677152299276804,0.0202274862245927));
#223=CARTESIAN_POINT('',(0.17977083626507,0.0670733075532624,0.0202274862245927));
#224=CARTESIAN_POINT('',(0.177034980676388,0.0652452672924728,0.0202274862245927));
#225=CARTESIAN_POINT('',(0.175206940415598,0.0625094117037907,0.0202274862245927));
#226=CARTESIAN_POINT('',(0.17456501804118,0.05928225,0.0202274862245927));
#227=CARTESIAN_POINT('',(0.175206940415598,0.0560550882962094,0.0202274862245927));
#228=CARTESIAN_POINT('',(0.174963125975603,0.0626104029515391,0.0198047235130364));
#229=CARTESIAN_POINT('',(0.174301115193011,0.05928225,0.0198047235130364));
#230=CARTESIAN_POINT('',(0.174963125975603,0.0559540970484609,0.0198047235130364));
#231=CARTESIAN_POINT('',(0.176848373182873,0.0531326252140121,0.0198047235130364));
#232=CARTESIAN_POINT('',(0.179669845017322,0.0512473780067423,0.0198047235130364));
#233=CARTESIAN_POINT('',(0.182997997968861,0.0505853672241501,0.0198047235130364));
#234=CARTESIAN_POINT('',(0.1863261509204,0.0512473780067423,0.0198047235130364));
#235=CARTESIAN_POINT('',(0.189147622754849,0.053132625214012,0.0198047235130364));
#236=CARTESIAN_POINT('',(0.191032869962118,0.0559540970484609,0.0198047235130364));
#237=CARTESIAN_POINT('',(0.191694880744711,0.05928225,0.0198047235130364));
#238=CARTESIAN_POINT('',(0.191032869962118,0.0626104029515391,0.0198047235130364));
#239=CARTESIAN_POINT('',(0.189147622754849,0.065431874785988,0.0198047235130364));
#240=CARTESIAN_POINT('',(0.1863261509204,0.0673171219932577,0.0198047235130364));
#241=CARTESIAN_POINT('',(0.182997997968861,0.0679791327758499,0.0198047235130364));
#242=CARTESIAN_POINT('',(0.179669845017322,0.0673171219932577,0.0198047235130364));
#243=CARTESIAN_POINT('',(0.176848373182873,0.065431874785988,0.0198047235130364));
#244=CARTESIAN_POINT('',(0.174963125975603,0.0626104029515391,0.0198047235130364));
#245=CARTESIAN_POINT('',(0.174301115193011,0.05928225,0.0198047235130364));
#246=CARTESIAN_POINT('',(0.174963125975603,0.0559540970484609,0.0198047235130364));
#247=CARTESIAN_POINT('',(0.174936780995204,0.062621315399721,0.0194649428490321));
#248=CARTESIAN_POINT('',(0.174272599591709,0.05928225,0.0194649428490321));
#249=CARTESIAN_POINT('',(0.174936780995204,0.055943184600279,0.0194649428490321));
#250=CARTESIAN_POINT('',(0.176828209607823,0.0531124616389623,0.0194649428490321));
#251=CARTESIAN_POINT('',(0.17965893256914,0.0512210330263428,0.0194649428490321));
#252=CARTESIAN_POINT('',(0.182997997968861,0.0505568516228488,0.0194649428490321));
#253=CARTESIAN_POINT('',(0.186337063368582,0.0512210330263428,0.0194649428490321));
#254=CARTESIAN_POINT('',(0.189167786329899,0.0531124616389623,0.0194649428490321));
#255=CARTESIAN_POINT('',(0.191059214942518,0.055943184600279,0.0194649428490321));
#256=CARTESIAN_POINT('',(0.191723396346012,0.05928225,0.0194649428490321));
#257=CARTESIAN_POINT('',(0.191059214942518,0.062621315399721,0.0194649428490321));
#258=CARTESIAN_POINT('',(0.189167786329899,0.0654520383610377,0.0194649428490321));
#259=CARTESIAN_POINT('',(0.186337063368582,0.0673434669736572,0.0194649428490321));
#260=CARTESIAN_POINT('',(0.182997997968861,0.0680076483771513,0.0194649428490321));
#261=CARTESIAN_POINT('',(0.17965893256914,0.0673434669736572,0.0194649428490321));
#262=CARTESIAN_POINT('',(0.176828209607823,0.0654520383610378,0.0194649428490321));
#263=CARTESIAN_POINT('',(0.174936780995204,0.062621315399721,0.0194649428490321));
#264=CARTESIAN_POINT('',(0.174272599591709,0.05928225,0.0194649428490321));
#265=CARTESIAN_POINT('',(0.174936780995204,0.055943184600279,0.0194649428490321));
#266=CARTESIAN_POINT('',(0.174940531589201,0.0626197618528202,0.0192928932188135));
#267=CARTESIAN_POINT('',(0.174276659205399,0.05928225,0.0192928932188134));
#268=CARTESIAN_POINT('',(0.174940531589201,0.0559447381471798,0.0192928932188134));
#269=CARTESIAN_POINT('',(0.176831080188192,0.0531153322193312,0.0192928932188134));
#270=CARTESIAN_POINT('',(0.179660486116041,0.0512247836203406,0.0192928932188134));
#271=CARTESIAN_POINT('',(0.182997997968861,0.0505609112365384,0.0192928932188134));
#272=CARTESIAN_POINT('',(0.186335509821681,0.0512247836203406,0.0192928932188134));
#273=CARTESIAN_POINT('',(0.18916491574953,0.0531153322193312,0.0192928932188134));
#274=CARTESIAN_POINT('',(0.19105546434852,0.0559447381471798,0.0192928932188134));
#275=CARTESIAN_POINT('',(0.191719336732322,0.05928225,0.0192928932188134));
#276=CARTESIAN_POINT('',(0.19105546434852,0.0626197618528202,0.0192928932188134));
#277=CARTESIAN_POINT('',(0.18916491574953,0.0654491677806688,0.0192928932188134));
#278=CARTESIAN_POINT('',(0.186335509821681,0.0673397163796595,0.0192928932188135));
#279=CARTESIAN_POINT('',(0.182997997968861,0.0680035887634616,0.0192928932188134));
#280=CARTESIAN_POINT('',(0.179660486116041,0.0673397163796595,0.0192928932188135));
#281=CARTESIAN_POINT('',(0.176831080188192,0.0654491677806688,0.0192928932188135));
#282=CARTESIAN_POINT('',(0.174940531589201,0.0626197618528202,0.0192928932188135));
#283=CARTESIAN_POINT('',(0.174276659205399,0.05928225,0.0192928932188134));
#284=CARTESIAN_POINT('',(0.174940531589201,0.0559447381471798,0.0192928932188134));
#285=MECHANICAL_DESIGN_GEOMETRIC_PRESENTATION_REPRESENTATION('',(#70),#286);
#286=(
GEOMETRIC_REPRESENTATION_CONTEXT(3)
GLOBAL_UNCERTAINTY_ASSIGNED_CONTEXT((#287))
GLOBAL_UNIT_ASSIGNED_CONTEXT((#290,#289,#288))
REPRESENTATION_CONTEXT('Part 9','TOP_LEVEL_ASSEMBLY_PART')
);
#287=UNCERTAINTY_MEASURE_WITH_UNIT(LENGTH_MEASURE(2.E-5),#290,
'DISTANCE_ACCURACY_VALUE','Maximum Tolerance applied to model');
#288=(
NAMED_UNIT(*)
SI_UNIT($,.STERADIAN.)
SOLID_ANGLE_UNIT()
);
#289=(
NAMED_UNIT(*)
PLANE_ANGLE_UNIT()
SI_UNIT($,.RADIAN.)
);
#290=(
LENGTH_UNIT()
NAMED_UNIT(*)
SI_UNIT($,.METRE.)
);
#291=PRODUCT_DEFINITION_SHAPE('','',#292);
#292=PRODUCT_DEFINITION('','',#294,#293);
#293=PRODUCT_DEFINITION_CONTEXT('',#300,'design');
#294=PRODUCT_DEFINITION_FORMATION_WITH_SPECIFIED_SOURCE('','',#296,
 .NOT_KNOWN.);
#295=PRODUCT_RELATED_PRODUCT_CATEGORY('','',(#296));
#296=PRODUCT('Part 9','Part 9','Part 9',(#298));
#297=PRODUCT_CATEGORY('','');
#298=PRODUCT_CONTEXT('',#300,'mechanical');
#299=APPLICATION_PROTOCOL_DEFINITION('international standard',
'ap242_managed_model_based_3d_engineering',2020,#300);
#300=APPLICATION_CONTEXT('managed model based 3d engineering');
ENDSEC;
END-ISO-10303-21;
